<?xml version="1.0" encoding="UTF-8"?>
<svg version="1.1" xmlns="http://www.w3.org/2000/svg" width="256" height="256">
<path d="M0 0 C1.093125 0.268125 2.18625 0.53625 3.3125 0.8125 C8.27918707 3.00708266 10.96133334 6.92455103 14 11.25 C16.15438173 14.19865429 16.15438173 14.19865429 19.25 16 C20.1575 16 21.065 16 22 16 C22.77859375 16.02320312 23.5571875 16.04640625 24.359375 16.0703125 C29.31329721 16.19355031 29.31329721 16.19355031 34.19873047 15.50219727 C39.68372119 14.5188762 45.31246741 14.81409112 50.87207031 14.81469727 C53.09720465 14.81252711 55.32182927 14.79439334 57.546875 14.77539062 C65.56434411 14.7442056 73.15103151 15.22813449 81 17 C84.67186676 17.83533882 84.67186676 17.83533882 88 17 C90.72065734 14.60808876 92.85580958 11.90845631 95 9 C100.87683958 1.15477318 106.35483464 -0.12418101 115.98828125 -1.6171875 C128.1803631 -3.1668944 141.29150858 -1.53070347 151.484375 5.5859375 C153.26365959 7.24599168 153.95843322 8.80828611 155 11 C156.12878554 12.57485983 157.27613198 14.13651174 158.4375 15.6875 C165.16443078 25.34344855 166.00548982 34.47114516 165 46 C163.05176475 55.38168047 157.76649655 62.41860518 151 69 C151.4125 70.19625 151.825 71.3925 152.25 72.625 C154.38790069 79.0182437 156.18144228 85.51042602 158 92 C158.66 92 159.32 92 160 92 C159.62542488 126.28008158 159.62542488 126.28008158 155 139 C154.5771875 140.18851563 154.154375 141.37703125 153.71875 142.6015625 C148.98674426 154.66817713 141.7680334 164.54948182 132.84765625 173.87890625 C131.11889059 175.86351461 130.15849227 177.66743036 129 180 C127.66666667 180.33333333 126.33333333 180.66666667 125 181 C124.30062468 182.31647119 123.63270867 183.65022151 123 185 C122.01 185.33 121.02 185.66 120 186 C119.38125 186.61875 118.7625 187.2375 118.125 187.875 C114.12992346 191.87007654 110.59039094 193.34995454 105 194 C105 194.66 105 195.32 105 196 C103.35 196.33 101.7 196.66 100 197 C99.67 197.99 99.34 198.98 99 200 C96.36 200.33 93.72 200.66 91 201 C91 201.66 91 202.32 91 203 C89.44033782 203.508783 87.87710759 204.00663469 86.3125 204.5 C85.00732422 204.91765625 85.00732422 204.91765625 83.67578125 205.34375 C80.17120022 206.20326768 77.28431029 206.64215514 74 205 C71.99199544 205.28112064 69.98985949 205.61067967 68 206 C68 206.66 68 207.32 68 208 C39.05534599 208.61503841 39.05534599 208.61503841 26 205 C25.31292969 204.835 24.62585938 204.67 23.91796875 204.5 C21.65743842 203.91069678 19.46274216 203.1859275 17.25 202.4375 C16.45078125 202.16808594 15.6515625 201.89867187 14.828125 201.62109375 C14.22484375 201.41613281 13.6215625 201.21117187 13 201 C13 200.34 13 199.68 13 199 C11.824375 198.855625 10.64875 198.71125 9.4375 198.5625 C4.4990962 197.47903462 0.54148124 195.26070931 -3.75 192.6875 C-4.38752197 192.30859619 -5.02504395 191.92969238 -5.68188477 191.53930664 C-9.64433395 189.09046221 -12.75619201 186.37775338 -16 183 C-16.680625 182.690625 -17.36125 182.38125 -18.0625 182.0625 C-20.99661928 180.45346685 -22.17660387 177.76272141 -24 175 C-26.27227054 172.99823785 -28.29666103 171.35166948 -31 170 C-31.14179687 169.40960938 -31.28359375 168.81921875 -31.4296875 168.2109375 C-32.1383994 165.46346536 -33.40855474 163.88023973 -35.125 161.625 C-40.73669919 153.8264737 -45.14706374 145.18506308 -48 136 C-48.66 136 -49.32 136 -50 136 C-49.96744792 134.14453125 -49.93489583 132.2890625 -49.90234375 130.43359375 C-49.95698199 127.87712374 -49.95698199 127.87712374 -50.49609375 124.89453125 C-51.13059264 119.990691 -51.14895806 115.18872217 -51.125 110.25 C-51.12234131 109.27369629 -51.11968262 108.29739258 -51.11694336 107.29150391 C-50.98294353 86.97441529 -50.98294353 86.97441529 -47 81 C-46.25400183 79.11866886 -45.54857399 77.22095964 -44.875 75.3125 C-44.52179687 74.31863281 -44.16859375 73.32476562 -43.8046875 72.30078125 C-43.53914063 71.54152344 -43.27359375 70.78226562 -43 70 C-43.87011719 69.23429687 -43.87011719 69.23429687 -44.7578125 68.453125 C-52.51765685 61.23109164 -58.4544269 52.52175379 -59.23828125 41.71484375 C-59.49726255 28.53405844 -56.57877366 20.05169535 -48 10 C-46.99258217 8.67226242 -45.99151299 7.33965659 -45 6 C-42.17292142 2.43997512 -39.75469523 1.39373223 -35.29296875 0.4921875 C-32.81289748 -0.00187429 -32.81289748 -0.00187429 -29.7265625 -1.0390625 C-20.23560053 -3.48641747 -9.39955351 -2.57005 0 0 Z M29 204 C33 205 33 205 33 205 Z M76 204 C80 205 80 205 80 205 Z M36 205 C36 205.33 36 205.66 36 206 C37.98 206 39.96 206 42 206 C42 205.67 42 205.34 42 205 C40.02 205 38.04 205 36 205 Z " fill="#000000" transform="translate(73,36)"/>
<path d="M0 0 C9.02657142 6.90860494 16.66540434 15.40432172 21 26 C21.2990625 26.70125 21.598125 27.4025 21.90625 28.125 C26.4181922 40.4910638 24.90122926 54.19634104 19.67578125 65.98828125 C17.02361792 71.57801131 14.12313121 76.58987923 10.19921875 81.37890625 C8.79283243 83.10488196 8.79283243 83.10488196 8 86 C5.36 86.33 2.72 86.66 0 87 C0 87.66 0 88.32 0 89 C-1.55966218 89.508783 -3.12289241 90.00663469 -4.6875 90.5 C-5.55761719 90.7784375 -6.42773438 91.056875 -7.32421875 91.34375 C-10.82879978 92.20326768 -13.71568971 92.64215514 -17 91 C-19.00800456 91.28112064 -21.01014051 91.61067967 -23 92 C-23 92.66 -23 93.32 -23 94 C-51.94465401 94.61503841 -51.94465401 94.61503841 -65 91 C-65.68964844 90.82855469 -66.37929687 90.65710938 -67.08984375 90.48046875 C-74.69381731 88.56781282 -74.69381731 88.56781282 -78 87 C-79.125 84.8125 -79.125 84.8125 -80 82 C-81.04842027 80.78156563 -82.13771973 79.59793093 -83.25 78.4375 C-91.42002873 69.43170632 -95.40037214 58.21982014 -95.25 46.1875 C-95.24178223 45.39069824 -95.23356445 44.59389648 -95.22509766 43.77294922 C-94.94045358 28.76639101 -90.16586942 17.41101158 -79.63671875 6.47265625 C-57.83572422 -13.97183196 -24.8830871 -16.13024239 0 0 Z M-62 90 C-58 91 -58 91 -58 91 Z M-15 90 C-11 91 -11 91 -11 91 Z M-55 91 C-55 91.33 -55 91.66 -55 92 C-53.02 92 -51.04 92 -49 92 C-49 91.67 -49 91.34 -49 91 C-50.98 91 -52.96 91 -55 91 Z " fill="#FDFDFD" transform="translate(164,150)"/>
<path d="M0 0 C0.78648926 0.00950684 1.57297852 0.01901367 2.38330078 0.02880859 C8.7955416 0.25767545 14.01354348 1.47118711 19.125 5.5625 C21.89266424 8.65964808 22.94706065 10.49486392 23.625 14.5625 C22.88831719 18.98259687 21.15976013 22.08705782 17.4765625 24.7578125 C9.38080033 29.53042339 2.45377416 30.56744956 -6.875 29.5625 C-12.26628339 27.79820778 -17.36704525 25.13809315 -20.875 20.5625 C-22.09262731 16.90961807 -22.26575851 14.40495864 -21.875 10.5625 C-16.80826642 2.48739336 -9.25815165 -0.18059846 0 0 Z " fill="#050505" transform="translate(126.875,143.4375)"/>
<path d="M0 0 C4.88127976 2.83890329 9.16098672 7.44697345 11.6875 12.5 C12.37419888 19.81728315 12.30701526 26.47454532 7.6875 32.5 C6.6975 33.16 5.7075 33.82 4.6875 34.5 C4.28136475 34.06768066 3.87522949 33.63536133 3.45678711 33.18994141 C-4.87185614 24.400217 -13.06834653 16.68707353 -23.3984375 10.3203125 C-26.3125 8.5 -26.3125 8.5 -28.3125 6.5 C-27.25762267 5.53328244 -26.19316719 4.57701255 -25.125 3.625 C-24.53332031 3.09132813 -23.94164062 2.55765625 -23.33203125 2.0078125 C-16.83336046 -2.84419315 -7.35807167 -3.24789882 0 0 Z " fill="#F8F8F8" transform="translate(207.3125,56.5)"/>
<path d="M0 0 C3.07666106 2.17176075 3.78029582 2.98254055 5.1875 6.25 C3.64642578 7.37535156 3.64642578 7.37535156 2.07421875 8.5234375 C-13.06022168 19.59857165 -13.06022168 19.59857165 -25.8125 33.25 C-29.92345091 31.51407325 -31.23082761 29.63820312 -33.04296875 25.66015625 C-34.71080892 20.4365147 -34.94182972 15.08533845 -32.89453125 9.9453125 C-26.14236324 -1.636076 -12.36626548 -5.81807693 0 0 Z " fill="#FAFAFA" transform="translate(66.8125,58.75)"/>
<path d="M0 0 C4.75056583 -0.02478423 9.50109371 -0.04289989 14.25170898 -0.05493164 C15.86662451 -0.05994942 17.48153552 -0.06676511 19.09643555 -0.07543945 C21.42237465 -0.08761714 23.7482535 -0.09325395 26.07421875 -0.09765625 C27.15107185 -0.10539818 27.15107185 -0.10539818 28.24967957 -0.11329651 C31.96290232 -0.11370876 35.38991122 0.11055784 39 1 C39 1.33 39 1.66 39 2 C19.695 1.505 19.695 1.505 0 1 C0 0.67 0 0.34 0 0 Z " fill="#000000" transform="translate(110,49)"/>
<path d="M0 0 C0.33 0 0.66 0 1 0 C1 7.92 1 15.84 1 24 C0.67 24 0.34 24 0 24 C0 16.08 0 8.16 0 0 Z " fill="#000000" transform="translate(233,134)"/>
<path d="M0 0 C0.33 0 0.66 0 1 0 C1 7.26 1 14.52 1 22 C0.67 22 0.34 22 0 22 C0 14.74 0 7.48 0 0 Z " fill="#000000" transform="translate(20,135)"/>
<path d="M0 0 C2.77109307 -0.05392397 5.54113818 -0.09363455 8.3125 -0.125 C9.09818359 -0.14175781 9.88386719 -0.15851562 10.69335938 -0.17578125 C11.45068359 -0.18222656 12.20800781 -0.18867188 12.98828125 -0.1953125 C13.68477783 -0.20578613 14.38127441 -0.21625977 15.09887695 -0.22705078 C17 0 17 0 20 2 C13.4 1.67 6.8 1.34 0 1 C0 0.67 0 0.34 0 0 Z " fill="#000000" transform="translate(47,32)"/>
<path d="M0 0 C0.33 0 0.66 0 1 0 C1 5.28 1 10.56 1 16 C0.67 16 0.34 16 0 16 C0 10.72 0 5.44 0 0 Z " fill="#000000" transform="translate(239,66)"/>
<path d="M0 0 C0.33 0 0.66 0 1 0 C1 4.95 1 9.9 1 15 C0.67 15 0.34 15 0 15 C0 10.05 0 5.1 0 0 Z " fill="#000000" transform="translate(12,66)"/>
<path d="M0 0 C2.97 0 5.94 0 9 0 C9 0.33 9 0.66 9 1 C6.03 1 3.06 1 0 1 C0 0.67 0 0.34 0 0 Z " fill="#000000" transform="translate(192,32)"/>
<path d="M0 0 C0.33 0 0.66 0 1 0 C1 2.31 1 4.62 1 7 C0.67 7 0.34 7 0 7 C0 4.69 0 2.38 0 0 Z " fill="#000000" transform="translate(21,128)"/>
<path d="M0 0 C1.98 0 3.96 0 6 0 C6 0.33 6 0.66 6 1 C4.02 1 2.04 1 0 1 C0 0.67 0 0.34 0 0 Z " fill="#FFFFFF" transform="translate(141,242)"/>
<path d="M0 0 C0.33 0 0.66 0 1 0 C1 1.98 1 3.96 1 6 C0.67 6 0.34 6 0 6 C0 4.02 0 2.04 0 0 Z " fill="#000000" transform="translate(21,158)"/>
<path d="M0 0 C1.98 0 3.96 0 6 0 C6 0.33 6 0.66 6 1 C4.02 1 2.04 1 0 1 C0 0.67 0 0.34 0 0 Z " fill="#000000" transform="translate(201,33)"/>
<path d="M0 0 C1.98 0 3.96 0 6 0 C6 0.33 6 0.66 6 1 C4.02 1 2.04 1 0 1 C0 0.67 0 0.34 0 0 Z " fill="#000000" transform="translate(186,33)"/>
<path d="M0 0 C0.33 0 0.66 0 1 0 C1 1.65 1 3.3 1 5 C0.67 5 0.34 5 0 5 C0 3.35 0 1.7 0 0 Z " fill="#000000" transform="translate(232,159)"/>
<path d="M0 0 C0.33 0 0.66 0 1 0 C1 1.65 1 3.3 1 5 C0.67 5 0.34 5 0 5 C0 3.35 0 1.7 0 0 Z " fill="#000000" transform="translate(231,123)"/>
<path d="M0 0 C1.65 0 3.3 0 5 0 C5 0.33 5 0.66 5 1 C3.35 1 1.7 1 0 1 C0 0.67 0 0.34 0 0 Z " fill="#000000" transform="translate(149,51)"/>
<path d="M0 0 C1.65 0 3.3 0 5 0 C5 0.33 5 0.66 5 1 C3.35 1 1.7 1 0 1 C0 0.67 0 0.34 0 0 Z " fill="#000000" transform="translate(100,51)"/>
<path d="M0 0 C1.65 0 3.3 0 5 0 C5 0.33 5 0.66 5 1 C3.35 1 1.7 1 0 1 C0 0.67 0 0.34 0 0 Z " fill="#000000" transform="translate(105,50)"/>
<path d="M0 0 C0.66 0.33 1.32 0.66 2 1 C1.01 1.66 0.02 2.32 -1 3 C-0.67 2.01 -0.34 1.02 0 0 Z " fill="#000000" transform="translate(166,44)"/>
<path d="M0 0 C0 3 0 3 0 3 Z " fill="#000000" transform="translate(211,204)"/>
<path d="M0 0 C1 4 1 4 1 4 Z " fill="#000000" transform="translate(231,165)"/>
<path d="M0 0 C1 4 1 4 1 4 Z " fill="#000000" transform="translate(22,164)"/>
<path d="M0 0 C1 4 1 4 1 4 Z " fill="#000000" transform="translate(22,124)"/>
<path d="M0 0 C1 4 1 4 1 4 Z " fill="#000000" transform="translate(238,82)"/>
<path d="M0 0 C1 4 1 4 1 4 Z " fill="#000000" transform="translate(13,81)"/>
<path d="M0 0 C1 4 1 4 1 4 Z " fill="#000000" transform="translate(238,62)"/>
<path d="M0 0 C1 4 1 4 1 4 Z " fill="#000000" transform="translate(13,62)"/>
<path d="M0 0 C4 1 4 1 4 1 Z " fill="#000000" transform="translate(154,52)"/>
<path d="M0 0 C4 1 4 1 4 1 Z " fill="#000000" transform="translate(207,34)"/>
<path d="M0 0 C4 1 4 1 4 1 Z " fill="#000000" transform="translate(43,33)"/>
<path d="M0 0 C3 1 3 1 3 1 Z " fill="#FFFFFF" transform="translate(164,237)"/>
<path d="" fill="#000000" transform="translate(0,0)"/>
<path d="" fill="#000000" transform="translate(0,0)"/>
<path d="" fill="#000000" transform="translate(0,0)"/>
<path d="" fill="#000000" transform="translate(0,0)"/>
<path d="" fill="#000000" transform="translate(0,0)"/>
<path d="" fill="#000000" transform="translate(0,0)"/>
<path d="" fill="#000000" transform="translate(0,0)"/>
<path d="" fill="#000000" transform="translate(0,0)"/>
<path d="" fill="#000000" transform="translate(0,0)"/>
<path d="" fill="#000000" transform="translate(0,0)"/>
<path d="" fill="#000000" transform="translate(0,0)"/>
<path d="" fill="#000000" transform="translate(0,0)"/>
<path d="" fill="#000000" transform="translate(0,0)"/>
<path d="" fill="#000000" transform="translate(0,0)"/>
<path d="" fill="#000000" transform="translate(0,0)"/>
<path d="" fill="#000000" transform="translate(0,0)"/>
<path d="M0 0 C3 1 3 1 3 1 Z " fill="#000000" transform="translate(183,34)"/>
<path d="M0 0 C3 1 3 1 3 1 Z " fill="#000000" transform="translate(68,34)"/>
<path d="M0 0 C3 1 3 1 3 1 Z " fill="#000000" transform="translate(40,34)"/>
<path d="M0 0 C2 1 2 1 2 1 Z " fill="#555555" transform="translate(84,235)"/>
<path d="M0 0 C2 1 2 1 2 1 Z " fill="#030303" transform="translate(82,234)"/>
<path d="M0 0 C2 1 2 1 2 1 Z " fill="#010101" transform="translate(178,230)"/>
<path d="M0 0 C2 1 2 1 2 1 Z " fill="#000000" transform="translate(180,229)"/>
<path d="" fill="#000000" transform="translate(0,0)"/>
<path d="" fill="#000000" transform="translate(0,0)"/>
<path d="" fill="#000000" transform="translate(0,0)"/>
<path d="" fill="#000000" transform="translate(0,0)"/>
<path d="" fill="#000000" transform="translate(0,0)"/>
<path d="" fill="#000000" transform="translate(0,0)"/>
<path d="" fill="#000000" transform="translate(0,0)"/>
<path d="" fill="#000000" transform="translate(0,0)"/>
<path d="" fill="#000000" transform="translate(0,0)"/>
<path d="" fill="#000000" transform="translate(0,0)"/>
<path d="" fill="#000000" transform="translate(0,0)"/>
<path d="" fill="#000000" transform="translate(0,0)"/>
<path d="" fill="#000000" transform="translate(0,0)"/>
<path d="" fill="#000000" transform="translate(0,0)"/>
<path d="" fill="#000000" transform="translate(0,0)"/>
<path d="" fill="#000000" transform="translate(0,0)"/>
<path d="" fill="#000000" transform="translate(0,0)"/>
<path d="" fill="#000000" transform="translate(0,0)"/>
<path d="" fill="#000000" transform="translate(0,0)"/>
<path d="" fill="#000000" transform="translate(0,0)"/>
<path d="" fill="#000000" transform="translate(0,0)"/>
<path d="" fill="#000000" transform="translate(0,0)"/>
<path d="" fill="#000000" transform="translate(0,0)"/>
<path d="" fill="#000000" transform="translate(0,0)"/>
<path d="" fill="#000000" transform="translate(0,0)"/>
<path d="" fill="#000000" transform="translate(0,0)"/>
<path d="" fill="#000000" transform="translate(0,0)"/>
<path d="" fill="#000000" transform="translate(0,0)"/>
<path d="" fill="#000000" transform="translate(0,0)"/>
<path d="" fill="#000000" transform="translate(0,0)"/>
<path d="" fill="#000000" transform="translate(0,0)"/>
<path d="" fill="#000000" transform="translate(0,0)"/>
<path d="" fill="#000000" transform="translate(0,0)"/>
<path d="" fill="#000000" transform="translate(0,0)"/>
<path d="" fill="#000000" transform="translate(0,0)"/>
<path d="" fill="#000000" transform="translate(0,0)"/>
<path d="" fill="#000000" transform="translate(0,0)"/>
<path d="" fill="#000000" transform="translate(0,0)"/>
<path d="" fill="#000000" transform="translate(0,0)"/>
<path d="" fill="#000000" transform="translate(0,0)"/>
<path d="" fill="#000000" transform="translate(0,0)"/>
<path d="M0 0 C2 1 2 1 2 1 Z " fill="#000000" transform="translate(36,36)"/>
<path d="M0 0 C2 1 2 1 2 1 Z " fill="#000000" transform="translate(211,35)"/>
<path d="M0 0 C2 1 2 1 2 1 Z " fill="#000000" transform="translate(180,35)"/>
<path d="M0 0 C2 1 2 1 2 1 Z " fill="#000000" transform="translate(71,35)"/>
<path d="M0 0 C2 1 2 1 2 1 Z " fill="#000000" transform="translate(38,35)"/>
<path d="" fill="#FFFFFF" transform="translate(0,0)"/>
<path d="" fill="#747474" transform="translate(0,0)"/>
<path d="" fill="#000000" transform="translate(0,0)"/>
<path d="" fill="#000000" transform="translate(0,0)"/>
<path d="" fill="#000000" transform="translate(0,0)"/>
<path d="" fill="#000000" transform="translate(0,0)"/>
<path d="" fill="#000000" transform="translate(0,0)"/>
<path d="" fill="#000000" transform="translate(0,0)"/>
<path d="" fill="#000000" transform="translate(0,0)"/>
<path d="" fill="#000000" transform="translate(0,0)"/>
<path d="" fill="#000000" transform="translate(0,0)"/>
<path d="" fill="#000000" transform="translate(0,0)"/>
<path d="" fill="#000000" transform="translate(0,0)"/>
<path d="" fill="#000000" transform="translate(0,0)"/>
<path d="" fill="#000000" transform="translate(0,0)"/>
<path d="" fill="#000000" transform="translate(0,0)"/>
<path d="" fill="#000000" transform="translate(0,0)"/>
<path d="" fill="#000000" transform="translate(0,0)"/>
<path d="" fill="#000000" transform="translate(0,0)"/>
<path d="" fill="#000000" transform="translate(0,0)"/>
<path d="" fill="#000000" transform="translate(0,0)"/>
<path d="" fill="#000000" transform="translate(0,0)"/>
<path d="" fill="#000000" transform="translate(0,0)"/>
<path d="" fill="#000000" transform="translate(0,0)"/>
<path d="" fill="#000000" transform="translate(0,0)"/>
<path d="" fill="#000000" transform="translate(0,0)"/>
<path d="" fill="#000000" transform="translate(0,0)"/>
<path d="" fill="#000000" transform="translate(0,0)"/>
<path d="" fill="#000000" transform="translate(0,0)"/>
<path d="" fill="#000000" transform="translate(0,0)"/>
<path d="" fill="#000000" transform="translate(0,0)"/>
<path d="" fill="#000000" transform="translate(0,0)"/>
<path d="" fill="#000000" transform="translate(0,0)"/>
<path d="" fill="#000000" transform="translate(0,0)"/>
<path d="" fill="#000000" transform="translate(0,0)"/>
<path d="" fill="#000000" transform="translate(0,0)"/>
<path d="" fill="#000000" transform="translate(0,0)"/>
<path d="" fill="#000000" transform="translate(0,0)"/>
<path d="" fill="#000000" transform="translate(0,0)"/>
<path d="" fill="#000000" transform="translate(0,0)"/>
<path d="" fill="#000000" transform="translate(0,0)"/>
<path d="" fill="#000000" transform="translate(0,0)"/>
<path d="" fill="#000000" transform="translate(0,0)"/>
<path d="" fill="#000000" transform="translate(0,0)"/>
<path d="" fill="#000000" transform="translate(0,0)"/>
<path d="" fill="#000000" transform="translate(0,0)"/>
<path d="" fill="#000000" transform="translate(0,0)"/>
<path d="" fill="#000000" transform="translate(0,0)"/>
<path d="" fill="#000000" transform="translate(0,0)"/>
<path d="" fill="#000000" transform="translate(0,0)"/>
<path d="" fill="#000000" transform="translate(0,0)"/>
<path d="" fill="#000000" transform="translate(0,0)"/>
<path d="" fill="#000000" transform="translate(0,0)"/>
<path d="" fill="#000000" transform="translate(0,0)"/>
<path d="" fill="#000000" transform="translate(0,0)"/>
<path d="" fill="#000000" transform="translate(0,0)"/>
<path d="" fill="#000000" transform="translate(0,0)"/>
<path d="" fill="#000000" transform="translate(0,0)"/>
<path d="" fill="#000000" transform="translate(0,0)"/>
<path d="" fill="#000000" transform="translate(0,0)"/>
<path d="" fill="#000000" transform="translate(0,0)"/>
<path d="" fill="#000000" transform="translate(0,0)"/>
<path d="" fill="#000000" transform="translate(0,0)"/>
<path d="" fill="#000000" transform="translate(0,0)"/>
<path d="" fill="#000000" transform="translate(0,0)"/>
<path d="" fill="#000000" transform="translate(0,0)"/>
<path d="" fill="#000000" transform="translate(0,0)"/>
<path d="" fill="#000000" transform="translate(0,0)"/>
<path d="" fill="#000000" transform="translate(0,0)"/>
<path d="" fill="#000000" transform="translate(0,0)"/>
<path d="" fill="#000000" transform="translate(0,0)"/>
<path d="" fill="#000000" transform="translate(0,0)"/>
<path d="" fill="#000000" transform="translate(0,0)"/>
<path d="" fill="#000000" transform="translate(0,0)"/>
<path d="" fill="#000000" transform="translate(0,0)"/>
<path d="" fill="#000000" transform="translate(0,0)"/>
<path d="" fill="#000000" transform="translate(0,0)"/>
<path d="" fill="#000000" transform="translate(0,0)"/>
<path d="" fill="#000000" transform="translate(0,0)"/>
<path d="" fill="#000000" transform="translate(0,0)"/>
<path d="" fill="#000000" transform="translate(0,0)"/>
<path d="" fill="#000000" transform="translate(0,0)"/>
</svg>
